 <svg
      version="1.0"
      xmlns="http://www.w3.org/2000/svg"
      width="124.000000pt"
      height="124.000000pt"
      viewBox="0 0 500.000000 500.000000"
      preserveAspectRatio="xMidYMid meet"
      className="symbol absolute inset-0"
    >
      <g
        transform="translate(0.000000,500.000000) scale(0.100000,-0.100000)"
        fill="#F2D399"
        stroke="none"
      >
        <path
          d="M0 2500 l0 -2500 2500 0 2500 0 0 2500 0 2500 -2500 0 -2500 0 0
-2500z m1280 1052 c26 -21 44 -101 30 -136 -17 -47 -83 -61 -115 -26 -21 24
-35 92 -26 129 7 26 42 51 72 51 9 0 27 -8 39 -18z m207 -3 c43 -16 42 -92 -1
-109 -13 -5 -33 -6 -44 -3 -16 4 -21 -1 -27 -26 -5 -22 -12 -31 -26 -31 -23 0
-23 4 -4 103 8 43 15 81 15 84 0 5 55 -6 87 -18z m183 -64 c28 -14 50 -29 50
-35 0 -18 -20 -20 -51 -4 -26 13 -33 14 -40 2 -13 -20 -11 -24 16 -36 33 -15
35 -47 3 -38 -40 13 -52 11 -56 -5 -2 -10 8 -21 28 -29 32 -13 34 -17 21 -39
-7 -11 -18 -8 -59 14 l-51 27 42 84 c23 46 43 84 45 84 1 0 25 -11 52 -25z
m-680 -40 c17 -21 -6 -51 -26 -34 -17 14 -44 5 -44 -16 0 -17 18 -19 55 -5 49
19 97 -29 74 -72 -25 -47 -83 -64 -109 -33 -17 21 -3 35 33 32 23 -1 32 3 35
16 3 17 -1 18 -51 12 -49 -6 -56 -5 -66 13 -16 31 -13 53 11 79 25 26 69 30
88 8z m840 -85 c0 -10 -7 -37 -15 -61 l-16 -44 39 38 c35 34 40 36 52 22 12
-14 5 -25 -53 -83 -62 -62 -68 -65 -83 -50 -15 15 -15 20 0 64 21 63 21 63
-19 24 -29 -28 -36 -31 -50 -20 -14 12 -8 21 51 81 52 53 71 66 81 57 7 -6 13
-18 13 -28z m-1007 -48 c26 -27 27 -42 3 -42 -21 1 -58 40 -52 55 8 22 19 19
49 -13z m-83 -79 c0 -2 -4 -12 -9 -22 -8 -14 0 -23 49 -50 67 -36 75 -44 63
-65 -7 -12 -20 -8 -76 24 -63 37 -67 38 -77 20 -6 -11 -16 -17 -25 -14 -20 8
-19 11 15 71 21 36 35 51 45 47 8 -4 15 -8 15 -11z m-96 -225 c-6 -35 -5 -40
12 -36 10 2 21 14 24 28 9 39 35 32 35 -10 0 -24 5 -36 17 -38 12 -2 19 6 24
32 4 26 11 36 25 36 11 0 19 -5 19 -11 0 -10 -21 -102 -25 -107 -2 -3 -178 38
-183 43 -3 3 12 70 23 102 2 7 11 10 20 7 11 -5 13 -15 9 -46z m2845 -42 c40
-43 44 -157 11 -313 -7 -29 -16 -56 -22 -59 -23 -14 -25 16 -6 101 34 163 12
276 -52 260 -83 -21 -259 -292 -348 -538 -91 -251 -94 -494 -6 -528 62 -23
174 68 277 223 46 69 107 178 107 191 0 1 -51 -3 -112 -10 -152 -16 -188 -16
-188 1 0 15 23 19 200 37 63 6 120 15 126 20 5 4 19 6 30 3 11 -3 51 2 89 11
68 15 100 10 72 -14 -8 -6 -48 -19 -88 -27 -41 -8 -74 -16 -75 -17 -5 -5 -66
-326 -85 -442 -14 -88 -17 -131 -10 -133 17 -6 13 -38 -9 -63 -29 -35 -42 -10
-34 66 5 56 58 378 70 434 3 15 -22 -16 -56 -67 -142 -214 -274 -297 -359
-227 -42 36 -56 85 -55 195 2 162 46 321 144 525 72 150 161 285 228 348 43
39 58 47 90 47 28 0 45 -7 61 -24z m-2115 -48 c7 -27 6 -41 -3 -52 -17 -21
-31 -11 -32 22 -3 90 -281 -634 -359 -936 -37 -139 -38 -152 -10 -127 32 29
148 205 245 370 48 83 101 174 118 202 35 59 61 74 85 49 14 -13 17 -52 22
-234 4 -186 8 -222 23 -245 22 -34 36 -34 81 2 117 93 249 342 311 586 23 91
33 204 19 218 -4 3 -17 -1 -31 -10 -35 -23 -52 -3 -22 26 50 46 99 12 99 -69
-1 -166 -141 -530 -263 -682 -119 -149 -194 -168 -238 -63 -8 19 -15 109 -18
240 l-6 210 -30 -47 c-16 -26 -78 -130 -138 -230 -118 -202 -208 -331 -249
-361 -61 -45 -75 27 -34 178 79 291 317 916 373 977 25 27 47 18 57 -24z
m2816 -65 c0 -10 -9 -52 -20 -93 -11 -41 -20 -78 -20 -81 0 -4 109 -5 243 -2
251 4 330 -2 335 -27 2 -13 -37 -15 -292 -12 l-295 3 -10 -38 c-55 -210 -173
-803 -176 -886 -2 -68 -14 -95 -34 -83 -6 4 -11 22 -11 41 0 32 60 379 79 455
24 94 25 91 -19 48 -30 -30 -46 -39 -66 -36 -35 4 -64 44 -71 96 -3 23 -8 42
-12 42 -3 -1 -24 -23 -45 -50 -85 -108 -128 -23 -59 115 41 80 108 110 148 65
27 -30 6 -48 -29 -25 -26 17 -28 17 -51 -5 -28 -27 -67 -114 -63 -142 2 -16
13 -6 53 46 62 83 78 83 87 -3 9 -79 30 -116 59 -101 21 12 71 76 96 125 12
22 81 295 83 325 0 3 -70 3 -155 2 -132 -3 -155 -2 -155 11 0 24 23 27 175 27
l144 0 11 43 c6 23 16 60 21 82 18 70 20 75 35 75 8 0 14 -8 14 -17z m-3420
-48 l0 -55 -85 0 c-47 0 -88 0 -92 0 -5 -1 -9 8 -11 20 -3 19 2 20 72 20 l76
0 0 35 c0 28 4 35 20 35 18 0 20 -7 20 -55z m1774 -311 c26 -10 19 -49 -16
-93 -18 -22 -46 -56 -62 -76 -52 -64 -46 -175 9 -175 28 0 118 79 171 151 33
46 64 64 64 37 0 -18 -78 -114 -136 -168 -85 -77 -148 -75 -174 4 l-11 34 -28
-16 c-26 -15 -30 -15 -54 1 -16 10 -34 39 -48 77 -12 33 -25 60 -30 60 -15 0
-57 -65 -85 -130 -32 -77 -43 -92 -56 -84 -10 6 -4 85 9 122 3 9 -14 -2 -38
-24 -73 -69 -116 -81 -143 -42 -19 26 -20 68 -5 138 8 39 15 50 27 48 13 -3
16 -11 12 -33 -9 -60 -5 -138 7 -142 17 -6 130 103 158 152 12 22 26 52 29 68
4 15 13 27 22 27 17 0 16 -23 -2 -90 l-7 -25 31 28 c48 46 64 35 111 -75 11
-27 26 -48 35 -48 16 0 76 77 76 98 0 28 61 141 87 161 29 24 26 23 47 15z
m1724 -30 c3 -26 -7 -42 -57 -97 -48 -53 -61 -75 -66 -111 -10 -62 4 -100 38
-104 22 -3 40 9 91 58 36 34 77 79 92 101 27 39 54 52 54 25 0 -34 -155 -197
-205 -216 -35 -13 -73 -3 -92 26 -26 40 -13 156 25 238 50 107 113 149 120 80z
m-2290 -21 c-2 -10 -13 -19 -26 -21 -24 -4 -29 7 -10 26 18 18 40 15 36 -5z
m-728 -1064 c0 -32 3 -39 20 -39 11 0 20 -4 20 -10 0 -5 -13 -10 -30 -10 -30
0 -30 0 -30 56 0 34 4 53 10 49 6 -3 10 -24 10 -46z m128 34 c2 -8 -5 -13 -17
-13 -12 0 -21 -4 -21 -10 0 -5 7 -10 15 -10 8 0 15 -4 15 -10 0 -5 -7 -10 -15
-10 -8 0 -15 -4 -15 -10 0 -5 9 -10 20 -10 11 0 20 -4 20 -10 0 -5 -16 -10
-35 -10 l-35 0 0 48 c0 27 3 52 7 56 11 11 56 2 61 -11z m97 7 c3 -6 -1 -13
-9 -16 -11 -4 -16 -19 -16 -45 0 -21 -4 -39 -10 -39 -5 0 -10 18 -10 39 0 26
-5 41 -16 45 -23 9 -7 26 26 26 16 0 32 -5 35 -10z m48 -20 c-3 -11 -9 -20
-14 -20 -10 0 -12 33 -3 43 12 12 22 -3 17 -23z m86 21 c16 -9 20 -38 12 -93
-2 -15 -62 -8 -68 7 -7 21 4 32 19 17 14 -14 28 -16 28 -3 0 5 -9 11 -20 14
-29 7 -37 37 -15 53 22 17 22 17 44 5z m135 -23 c11 -25 15 -28 15 -12 1 20
18 44 33 44 4 0 8 -25 8 -55 0 -30 -4 -55 -10 -55 -5 0 -11 8 -11 18 -1 16 -2
16 -6 0 -5 -20 -33 -24 -34 -5 0 10 -2 10 -6 0 -2 -7 -11 -13 -19 -13 -10 0
-14 13 -14 48 0 71 20 84 44 30z m145 10 c20 -54 23 -88 8 -88 -9 0 -18 6 -21
13 -5 10 -7 10 -12 0 -3 -7 -12 -13 -21 -13 -11 0 -13 7 -8 33 11 50 24 77 35
77 6 0 14 -10 19 -22z m91 7 c7 8 16 12 22 9 5 -3 4 -12 -3 -20 -11 -13 -10
-29 6 -66 11 -27 -20 -23 -33 5 l-11 22 0 -22 c-1 -13 -5 -23 -11 -23 -6 0
-10 26 -10 58 1 50 2 55 14 39 12 -15 15 -15 26 -2z m120 1 c0 -8 -10 -17 -22
-19 l-23 -4 23 -8 c27 -9 29 -25 2 -25 -11 0 -20 -4 -20 -10 0 -5 9 -10 20
-10 11 0 20 -4 20 -10 0 -5 -13 -10 -30 -10 -30 0 -30 1 -30 55 0 54 0 55 30
55 19 0 30 -5 30 -14z m101 -24 c1 -26 1 -25 10 6 11 37 30 38 39 1 l6 -24 7
28 c8 30 27 37 27 10 0 -55 -13 -93 -31 -93 -14 0 -19 8 -20 28 l-1 27 -11
-27 c-14 -35 -35 -36 -42 -3 -3 14 -7 36 -10 49 -2 12 -2 26 2 29 11 12 23 -4
24 -31z m139 -17 c0 -30 -4 -55 -10 -55 -11 0 -14 93 -3 103 12 12 13 8 13
-48z m74 28 c14 -26 15 -26 16 -6 0 12 5 25 10 28 6 4 10 -15 10 -49 0 -61
-11 -71 -34 -28 l-15 27 -1 -27 c0 -16 -4 -28 -10 -28 -5 0 -10 25 -10 55 0
61 11 70 34 28z m134 10 c2 -8 -5 -13 -17 -13 -12 0 -21 -4 -21 -10 0 -5 7
-10 15 -10 8 0 15 -4 15 -10 0 -5 -7 -10 -15 -10 -8 0 -15 -4 -15 -10 0 -5 9
-10 20 -10 11 0 20 -4 20 -10 0 -5 -16 -10 -35 -10 l-35 0 0 48 c0 27 3 52 7
56 11 11 56 2 61 -11z m140 0 c2 -8 -5 -13 -17 -13 -12 0 -21 -4 -21 -10 0 -5
7 -10 15 -10 8 0 15 -4 15 -10 0 -5 -7 -10 -15 -10 -8 0 -15 -4 -15 -10 0 -5
9 -10 20 -10 11 0 20 -4 20 -10 0 -5 -16 -10 -35 -10 l-35 0 0 48 c0 27 3 52
7 56 11 11 56 2 61 -11z m92 -25 c6 -24 13 -49 15 -55 2 -7 -2 -13 -10 -13 -8
0 -15 5 -15 10 0 6 -7 10 -15 10 -8 0 -15 -4 -15 -10 0 -5 -7 -10 -15 -10 -8
0 -12 6 -10 13 2 6 9 31 15 55 6 24 17 42 25 42 8 0 19 -18 25 -42z m98 33 c8
-4 12 -17 11 -27 -2 -11 0 -25 5 -32 11 -18 -12 -42 -41 -42 -13 0 -26 7 -30
15 -7 21 4 32 19 17 14 -14 28 -16 28 -3 0 5 -11 12 -25 15 -27 7 -33 34 -13
54 14 14 28 15 46 3z m71 -13 l8 -22 12 22 c21 40 30 14 13 -38 -10 -27 -19
-50 -22 -50 -5 0 -40 91 -40 104 0 16 22 4 29 -16z m181 -20 c6 -24 13 -49 15
-55 2 -7 -2 -13 -10 -13 -8 0 -15 5 -15 10 0 6 -7 10 -15 10 -8 0 -15 -4 -15
-10 0 -5 -7 -10 -15 -10 -8 0 -12 6 -10 13 2 6 9 31 15 55 6 24 17 42 25 42 8
0 19 -18 25 -42z m80 10 l20 -33 0 33 c0 20 4 31 10 27 6 -3 10 -28 10 -56 0
-56 -18 -66 -40 -21 l-14 27 -4 -27 c-6 -46 -22 -31 -22 20 0 43 5 62 17 62 2
0 12 -15 23 -32z m142 8 c12 -17 9 -61 -4 -74 -7 -7 -25 -12 -40 -12 -27 0
-28 2 -28 48 0 27 3 52 6 55 9 9 57 -4 66 -17z m143 13 c4 -6 -2 -13 -14 -16
-24 -6 -28 -23 -6 -23 8 0 15 -4 15 -10 0 -5 -7 -10 -15 -10 -8 0 -15 -9 -15
-20 0 -11 -7 -20 -15 -20 -11 0 -15 12 -15 48 0 27 3 52 7 55 10 11 51 8 58
-4z m55 -40 c0 -56 23 -46 31 12 7 54 22 31 17 -27 -3 -35 -6 -39 -32 -42 -16
-2 -32 2 -37 10 -10 15 -12 82 -3 91 14 13 24 -6 24 -44z m113 25 c11 -26 12
-26 17 -5 9 39 25 23 28 -29 2 -39 0 -50 -12 -50 -9 0 -22 12 -30 28 l-15 27
-1 -27 c0 -16 -4 -28 -10 -28 -5 0 -10 25 -10 55 0 60 13 71 33 29z m97 -14
c0 -22 -4 -40 -10 -40 -5 0 -10 18 -10 40 0 22 5 40 10 40 6 0 10 -18 10 -40z
m0 -60 c0 -5 -4 -10 -10 -10 -5 0 -10 5 -10 10 0 6 5 10 10 10 6 0 10 -4 10
-10z"
        />
        <path
          d="M1217 3523 c-12 -11 -7 -79 7 -98 21 -29 46 -12 46 30 0 57 -29 93
-53 68z"
        />
        <path
          d="M1432 3498 c4 -27 33 -36 42 -13 8 22 -1 35 -25 35 -15 0 -20 -6 -17
-22z"
        />
        <path
          d="M2495 2424 c-9 -15 -12 -23 -6 -20 11 7 35 46 28 46 -3 0 -12 -12
-22 -26z"
        />
        <path
          d="M1580 1390 c0 -5 7 -10 16 -10 8 0 12 5 9 10 -3 6 -10 10 -16 10 -5
0 -9 -4 -9 -10z"
        />
        <path
          d="M2845 1390 c3 -5 13 -10 21 -10 8 0 12 5 9 10 -3 6 -13 10 -21 10 -8
0 -12 -4 -9 -10z"
        />
        <path
          d="M3310 1370 c0 -16 5 -30 10 -30 6 0 10 14 10 30 0 17 -4 30 -10 30
-5 0 -10 -13 -10 -30z"
        />
      </g>
    </svg>
